<svg xmlns="http://www.w3.org/2000/svg" xmlns:xlink="http://www.w3.org/1999/xlink" width="321" zoomAndPan="magnify" viewBox="0 0 240.75 141.750002" height="188" preserveAspectRatio="xMidYMid meet" version="1.0"><defs><g/><clipPath id="861fca59f4"><path d="M 132.800781 36.101562 L 164.277344 36.101562 L 164.277344 83.316406 L 132.800781 83.316406 Z M 132.800781 36.101562 " clipRule="nonzero"/></clipPath></defs><g fill="#1c7436" fillOpacity="1"><g transform="translate(6.504371, 76.985891)"><g><path d="M 12.890625 -24.265625 C 15.566406 -24.265625 17.664062 -23.472656 19.1875 -21.890625 C 20.71875 -20.304688 21.484375 -17.71875 21.484375 -14.125 L 6.4375 -14.125 L 6.359375 -14.984375 L 15.71875 -14.984375 C 15.75 -16.484375 15.65625 -17.863281 15.4375 -19.125 C 15.226562 -20.394531 14.894531 -21.410156 14.4375 -22.171875 C 13.976562 -22.929688 13.367188 -23.3125 12.609375 -23.3125 C 11.546875 -23.3125 10.640625 -22.640625 9.890625 -21.296875 C 9.148438 -19.953125 8.703125 -17.726562 8.546875 -14.625 L 8.6875 -14.34375 C 8.65625 -13.976562 8.628906 -13.597656 8.609375 -13.203125 C 8.597656 -12.804688 8.59375 -12.394531 8.59375 -11.96875 C 8.59375 -9.875 8.890625 -8.171875 9.484375 -6.859375 C 10.078125 -5.546875 10.828125 -4.59375 11.734375 -4 C 12.648438 -3.40625 13.582031 -3.109375 14.53125 -3.109375 C 15.175781 -3.109375 15.835938 -3.207031 16.515625 -3.40625 C 17.203125 -3.601562 17.894531 -3.96875 18.59375 -4.5 C 19.300781 -5.03125 19.957031 -5.785156 20.5625 -6.765625 L 21.390625 -6.484375 C 21.023438 -5.328125 20.445312 -4.203125 19.65625 -3.109375 C 18.863281 -2.015625 17.859375 -1.113281 16.640625 -0.40625 C 15.421875 0.289062 13.957031 0.640625 12.25 0.640625 C 10.175781 0.640625 8.347656 0.195312 6.765625 -0.6875 C 5.179688 -1.570312 3.9375 -2.910156 3.03125 -4.703125 C 2.132812 -6.503906 1.6875 -8.789062 1.6875 -11.5625 C 1.6875 -14.394531 2.164062 -16.753906 3.125 -18.640625 C 4.09375 -20.535156 5.421875 -21.945312 7.109375 -22.875 C 8.796875 -23.800781 10.722656 -24.265625 12.890625 -24.265625 Z M 12.890625 -24.265625 "/></g></g></g><g fill="#1c7436" fillOpacity="1"><g transform="translate(29.539778, 76.985891)"><g><path d="M 11.25 -23.625 L 11.25 -22.671875 C 10.632812 -22.671875 10.179688 -22.53125 9.890625 -22.25 C 9.597656 -21.976562 9.609375 -21.597656 9.921875 -21.109375 L 21.9375 -3.25 C 22.300781 -2.695312 22.6875 -2.195312 23.09375 -1.75 C 23.507812 -1.3125 23.976562 -1.046875 24.5 -0.953125 L 24.5 0 C 24.039062 -0.03125 23.347656 -0.0664062 22.421875 -0.109375 C 21.492188 -0.160156 20.554688 -0.1875 19.609375 -0.1875 C 18.515625 -0.1875 17.382812 -0.160156 16.21875 -0.109375 C 15.0625 -0.0664062 14.210938 -0.03125 13.671875 0 L 13.671875 -0.953125 C 14.273438 -0.953125 14.722656 -1.085938 15.015625 -1.359375 C 15.304688 -1.640625 15.296875 -2.023438 14.984375 -2.515625 L 2.96875 -20.390625 C 2.445312 -21.148438 2.007812 -21.703125 1.65625 -22.046875 C 1.3125 -22.398438 0.894531 -22.609375 0.40625 -22.671875 L 0.40625 -23.625 C 0.925781 -23.59375 1.703125 -23.554688 2.734375 -23.515625 C 3.773438 -23.472656 4.8125 -23.453125 5.84375 -23.453125 C 6.851562 -23.453125 7.875 -23.472656 8.90625 -23.515625 C 9.945312 -23.554688 10.726562 -23.59375 11.25 -23.625 Z M 10.1875 -11.015625 C 10.1875 -11.015625 10.207031 -10.921875 10.25 -10.734375 C 10.300781 -10.554688 10.347656 -10.375 10.390625 -10.1875 C 10.441406 -10.007812 10.46875 -9.921875 10.46875 -9.921875 L 8.640625 -7.59375 C 7.722656 -6.394531 7.21875 -5.300781 7.125 -4.3125 C 7.039062 -3.320312 7.300781 -2.53125 7.90625 -1.9375 C 8.519531 -1.34375 9.359375 -1.003906 10.421875 -0.921875 L 10.421875 0 C 9.835938 -0.03125 9.125 -0.0507812 8.28125 -0.0625 C 7.445312 -0.0820312 6.632812 -0.0976562 5.84375 -0.109375 C 5.050781 -0.128906 4.382812 -0.140625 3.84375 -0.140625 C 3.164062 -0.140625 2.578125 -0.128906 2.078125 -0.109375 C 1.578125 -0.0976562 1.097656 -0.0625 0.640625 0 L 0.640625 -0.921875 C 1.335938 -1.191406 2.003906 -1.59375 2.640625 -2.125 C 3.285156 -2.65625 4.003906 -3.425781 4.796875 -4.4375 Z M 23.171875 -23.625 L 23.171875 -22.71875 C 22.535156 -22.53125 21.863281 -22.128906 21.15625 -21.515625 C 20.457031 -20.910156 19.726562 -20.140625 18.96875 -19.203125 L 13.9375 -12.890625 C 13.9375 -12.890625 13.910156 -12.972656 13.859375 -13.140625 C 13.816406 -13.304688 13.773438 -13.476562 13.734375 -13.65625 C 13.691406 -13.84375 13.671875 -13.9375 13.671875 -13.9375 L 15.953125 -17 C 16.773438 -18.0625 17.273438 -19.003906 17.453125 -19.828125 C 17.640625 -20.648438 17.507812 -21.320312 17.0625 -21.84375 C 16.625 -22.363281 15.859375 -22.65625 14.765625 -22.71875 L 14.765625 -23.625 C 15.648438 -23.59375 16.546875 -23.5625 17.453125 -23.53125 C 18.367188 -23.5 19.191406 -23.484375 19.921875 -23.484375 C 20.628906 -23.484375 21.238281 -23.5 21.75 -23.53125 C 22.269531 -23.5625 22.742188 -23.59375 23.171875 -23.625 Z M 23.171875 -23.625 "/></g></g></g><g fill="#1c7436" fillOpacity="1"><g transform="translate(54.037744, 76.985891)"><g><path d="M 10.421875 -24.125 L 10.421875 3.75 C 10.421875 5.175781 10.785156 6.125 11.515625 6.59375 C 12.242188 7.070312 13.25 7.3125 14.53125 7.3125 L 14.53125 8.265625 C 13.738281 8.242188 12.648438 8.207031 11.265625 8.15625 C 9.878906 8.113281 8.410156 8.09375 6.859375 8.09375 C 5.734375 8.09375 4.628906 8.113281 3.546875 8.15625 C 2.460938 8.207031 1.644531 8.242188 1.09375 8.265625 L 1.09375 7.3125 C 2.101562 7.3125 2.8125 7.097656 3.21875 6.671875 C 3.632812 6.242188 3.84375 5.421875 3.84375 4.203125 L 3.84375 -18.640625 C 3.84375 -20.015625 3.628906 -21.03125 3.203125 -21.6875 C 2.773438 -22.34375 2.015625 -22.671875 0.921875 -22.671875 L 0.921875 -23.625 C 1.890625 -23.53125 2.832031 -23.484375 3.75 -23.484375 C 5 -23.484375 6.1875 -23.535156 7.3125 -23.640625 C 8.4375 -23.753906 9.472656 -23.914062 10.421875 -24.125 Z M 17.5 -24.265625 C 19.050781 -24.265625 20.4375 -23.84375 21.65625 -23 C 22.875 -22.164062 23.847656 -20.90625 24.578125 -19.21875 C 25.316406 -17.53125 25.6875 -15.421875 25.6875 -12.890625 C 25.6875 -10.660156 25.429688 -8.707031 24.921875 -7.03125 C 24.421875 -5.363281 23.707031 -3.957031 22.78125 -2.8125 C 21.851562 -1.664062 20.738281 -0.800781 19.4375 -0.21875 C 18.144531 0.351562 16.691406 0.640625 15.078125 0.640625 C 13.890625 0.640625 12.804688 0.429688 11.828125 0.015625 C 10.859375 -0.390625 10.113281 -0.972656 9.59375 -1.734375 L 10.0625 -2.328125 C 10.363281 -1.785156 10.796875 -1.359375 11.359375 -1.046875 C 11.921875 -0.742188 12.566406 -0.59375 13.296875 -0.59375 C 14.671875 -0.59375 15.753906 -1.054688 16.546875 -1.984375 C 17.335938 -2.910156 17.90625 -4.21875 18.25 -5.90625 C 18.601562 -7.601562 18.78125 -9.625 18.78125 -11.96875 C 18.78125 -14.59375 18.613281 -16.648438 18.28125 -18.140625 C 17.945312 -19.640625 17.488281 -20.707031 16.90625 -21.34375 C 16.332031 -21.976562 15.632812 -22.296875 14.8125 -22.296875 C 13.707031 -22.296875 12.707031 -21.867188 11.8125 -21.015625 C 10.914062 -20.171875 10.40625 -18.957031 10.28125 -17.375 L 10.0625 -18.96875 C 10.601562 -20.707031 11.535156 -22.023438 12.859375 -22.921875 C 14.191406 -23.816406 15.738281 -24.265625 17.5 -24.265625 Z M 17.5 -24.265625 "/></g></g></g><g fill="#1c7436" fillOpacity="1"><g transform="translate(81.46084, 76.985891)"><g><path d="M 12.890625 -24.265625 C 15.566406 -24.265625 17.664062 -23.472656 19.1875 -21.890625 C 20.71875 -20.304688 21.484375 -17.71875 21.484375 -14.125 L 6.4375 -14.125 L 6.359375 -14.984375 L 15.71875 -14.984375 C 15.75 -16.484375 15.65625 -17.863281 15.4375 -19.125 C 15.226562 -20.394531 14.894531 -21.410156 14.4375 -22.171875 C 13.976562 -22.929688 13.367188 -23.3125 12.609375 -23.3125 C 11.546875 -23.3125 10.640625 -22.640625 9.890625 -21.296875 C 9.148438 -19.953125 8.703125 -17.726562 8.546875 -14.625 L 8.6875 -14.34375 C 8.65625 -13.976562 8.628906 -13.597656 8.609375 -13.203125 C 8.597656 -12.804688 8.59375 -12.394531 8.59375 -11.96875 C 8.59375 -9.875 8.890625 -8.171875 9.484375 -6.859375 C 10.078125 -5.546875 10.828125 -4.59375 11.734375 -4 C 12.648438 -3.40625 13.582031 -3.109375 14.53125 -3.109375 C 15.175781 -3.109375 15.835938 -3.207031 16.515625 -3.40625 C 17.203125 -3.601562 17.894531 -3.96875 18.59375 -4.5 C 19.300781 -5.03125 19.957031 -5.785156 20.5625 -6.765625 L 21.390625 -6.484375 C 21.023438 -5.328125 20.445312 -4.203125 19.65625 -3.109375 C 18.863281 -2.015625 17.859375 -1.113281 16.640625 -0.40625 C 15.421875 0.289062 13.957031 0.640625 12.25 0.640625 C 10.175781 0.640625 8.347656 0.195312 6.765625 -0.6875 C 5.179688 -1.570312 3.9375 -2.910156 3.03125 -4.703125 C 2.132812 -6.503906 1.6875 -8.789062 1.6875 -11.5625 C 1.6875 -14.394531 2.164062 -16.753906 3.125 -18.640625 C 4.09375 -20.535156 5.421875 -21.945312 7.109375 -22.875 C 8.796875 -23.800781 10.722656 -24.265625 12.890625 -24.265625 Z M 12.890625 -24.265625 "/></g></g></g><g fill="#1c7436" fillOpacity="1"><g transform="translate(104.496247, 76.985891)"><g><path d="M 18.09375 -24.265625 C 19.375 -24.265625 20.414062 -24.101562 21.21875 -23.78125 C 22.03125 -23.46875 22.664062 -23.035156 23.125 -22.484375 C 23.613281 -21.910156 23.972656 -21.164062 24.203125 -20.25 C 24.429688 -19.332031 24.546875 -18.097656 24.546875 -16.546875 L 24.546875 -4.25 C 24.546875 -2.96875 24.765625 -2.097656 25.203125 -1.640625 C 25.648438 -1.179688 26.40625 -0.953125 27.46875 -0.953125 L 27.46875 0 C 26.882812 -0.03125 26.015625 -0.0664062 24.859375 -0.109375 C 23.703125 -0.160156 22.5625 -0.1875 21.4375 -0.1875 C 20.28125 -0.1875 19.144531 -0.160156 18.03125 -0.109375 C 16.914062 -0.0664062 16.070312 -0.03125 15.5 0 L 15.5 -0.953125 C 16.40625 -0.953125 17.039062 -1.179688 17.40625 -1.640625 C 17.78125 -2.097656 17.96875 -2.96875 17.96875 -4.25 L 17.96875 -18.46875 C 17.96875 -19.226562 17.890625 -19.890625 17.734375 -20.453125 C 17.578125 -21.015625 17.300781 -21.453125 16.90625 -21.765625 C 16.507812 -22.085938 15.914062 -22.25 15.125 -22.25 C 14.300781 -22.25 13.546875 -22.019531 12.859375 -21.5625 C 12.179688 -21.113281 11.632812 -20.484375 11.21875 -19.671875 C 10.8125 -18.867188 10.609375 -17.960938 10.609375 -16.953125 L 10.609375 -4.25 C 10.609375 -2.96875 10.796875 -2.097656 11.171875 -1.640625 C 11.554688 -1.179688 12.191406 -0.953125 13.078125 -0.953125 L 13.078125 0 C 12.523438 -0.03125 11.722656 -0.0664062 10.671875 -0.109375 C 9.617188 -0.160156 8.53125 -0.1875 7.40625 -0.1875 C 6.25 -0.1875 5.0625 -0.160156 3.84375 -0.109375 C 2.625 -0.0664062 1.707031 -0.03125 1.09375 0 L 1.09375 -0.953125 C 2.164062 -0.953125 2.921875 -1.179688 3.359375 -1.640625 C 3.796875 -2.097656 4.015625 -2.96875 4.015625 -4.25 L 4.015625 -18.640625 C 4.015625 -20.015625 3.804688 -21.03125 3.390625 -21.6875 C 2.984375 -22.34375 2.21875 -22.671875 1.09375 -22.671875 L 1.09375 -23.625 C 2.070312 -23.53125 3.019531 -23.484375 3.9375 -23.484375 C 5.207031 -23.484375 6.398438 -23.535156 7.515625 -23.640625 C 8.628906 -23.753906 9.660156 -23.914062 10.609375 -24.125 L 10.609375 -20.015625 C 11.367188 -21.566406 12.398438 -22.660156 13.703125 -23.296875 C 15.015625 -23.941406 16.476562 -24.265625 18.09375 -24.265625 Z M 18.09375 -24.265625 "/></g></g></g><g fill="#1c7436" fillOpacity="1"><g transform="translate(132.553664, 76.985891)"><g/></g></g><g fill="#1c7436" fillOpacity="1"><g transform="translate(143.202972, 76.985891)"><g/></g></g><g fill="#1c7436" fillOpacity="1"><g transform="translate(153.852281, 76.985891)"><g/></g></g><g fill="#1c7436" fillOpacity="1"><g transform="translate(164.499267, 76.985891)"><g><path d="M 7.40625 0.3125 C 6.03125 0.3125 4.882812 0.0546875 3.96875 -0.453125 C 3.0625 -0.972656 2.394531 -1.664062 1.96875 -2.53125 C 1.539062 -3.40625 1.328125 -4.359375 1.328125 -5.390625 C 1.328125 -6.703125 1.625 -7.769531 2.21875 -8.59375 C 2.8125 -9.414062 3.578125 -10.082031 4.515625 -10.59375 C 5.460938 -11.113281 6.460938 -11.539062 7.515625 -11.875 C 8.566406 -12.21875 9.570312 -12.546875 10.53125 -12.859375 C 11.488281 -13.179688 12.265625 -13.5625 12.859375 -14 C 13.453125 -14.445312 13.75 -15.019531 13.75 -15.71875 L 13.75 -19.28125 C 13.75 -20.070312 13.617188 -20.78125 13.359375 -21.40625 C 13.109375 -22.03125 12.710938 -22.507812 12.171875 -22.84375 C 11.640625 -23.1875 10.945312 -23.359375 10.09375 -23.359375 C 9.488281 -23.359375 8.878906 -23.273438 8.265625 -23.109375 C 7.660156 -22.941406 7.160156 -22.65625 6.765625 -22.25 C 7.617188 -21.945312 8.28125 -21.484375 8.75 -20.859375 C 9.21875 -20.234375 9.453125 -19.523438 9.453125 -18.734375 C 9.453125 -17.703125 9.09375 -16.878906 8.375 -16.265625 C 7.664062 -15.660156 6.820312 -15.359375 5.84375 -15.359375 C 4.75 -15.359375 3.921875 -15.695312 3.359375 -16.375 C 2.796875 -17.0625 2.515625 -17.894531 2.515625 -18.875 C 2.515625 -19.757812 2.734375 -20.488281 3.171875 -21.0625 C 3.617188 -21.644531 4.238281 -22.195312 5.03125 -22.71875 C 5.882812 -23.207031 6.910156 -23.585938 8.109375 -23.859375 C 9.316406 -24.128906 10.617188 -24.265625 12.015625 -24.265625 C 13.421875 -24.265625 14.6875 -24.117188 15.8125 -23.828125 C 16.9375 -23.546875 17.878906 -23.019531 18.640625 -22.25 C 19.347656 -21.550781 19.804688 -20.691406 20.015625 -19.671875 C 20.234375 -18.648438 20.34375 -17.363281 20.34375 -15.8125 L 20.34375 -3.375 C 20.34375 -2.613281 20.414062 -2.085938 20.5625 -1.796875 C 20.71875 -1.515625 20.976562 -1.375 21.34375 -1.375 C 21.613281 -1.375 21.878906 -1.445312 22.140625 -1.59375 C 22.398438 -1.75 22.679688 -1.929688 22.984375 -2.140625 L 23.453125 -1.375 C 22.804688 -0.820312 22.0625 -0.398438 21.21875 -0.109375 C 20.382812 0.171875 19.453125 0.3125 18.421875 0.3125 C 17.296875 0.3125 16.394531 0.15625 15.71875 -0.15625 C 15.050781 -0.476562 14.570312 -0.910156 14.28125 -1.453125 C 13.988281 -2.003906 13.84375 -2.644531 13.84375 -3.375 C 13.113281 -2.21875 12.226562 -1.3125 11.1875 -0.65625 C 10.15625 -0.0078125 8.894531 0.3125 7.40625 0.3125 Z M 10.65625 -2.609375 C 11.257812 -2.609375 11.8125 -2.75 12.3125 -3.03125 C 12.820312 -3.320312 13.300781 -3.804688 13.75 -4.484375 L 13.75 -13.84375 C 13.476562 -13.382812 13.097656 -12.972656 12.609375 -12.609375 C 12.128906 -12.242188 11.613281 -11.867188 11.0625 -11.484375 C 10.507812 -11.109375 9.984375 -10.691406 9.484375 -10.234375 C 8.984375 -9.773438 8.578125 -9.210938 8.265625 -8.546875 C 7.960938 -7.878906 7.8125 -7.070312 7.8125 -6.125 C 7.8125 -4.9375 8.070312 -4.050781 8.59375 -3.46875 C 9.113281 -2.894531 9.800781 -2.609375 10.65625 -2.609375 Z M 10.65625 -2.609375 "/></g></g></g><g fill="#1c7436" fillOpacity="1"><g transform="translate(188.174542, 76.985891)"><g><path d="M 23.171875 -23.625 L 23.171875 -22.71875 C 22.585938 -22.5625 22.035156 -22.203125 21.515625 -21.640625 C 21.003906 -21.078125 20.503906 -20.125 20.015625 -18.78125 L 13.34375 0.09375 C 12.851562 0.0625 12.359375 0.046875 11.859375 0.046875 C 11.359375 0.046875 10.863281 0.0625 10.375 0.09375 L 2.234375 -20.109375 C 1.753906 -21.296875 1.273438 -22.019531 0.796875 -22.28125 C 0.328125 -22.539062 -0.0703125 -22.671875 -0.40625 -22.671875 L -0.40625 -23.625 C 0.5625 -23.5625 1.570312 -23.507812 2.625 -23.46875 C 3.675781 -23.425781 4.828125 -23.40625 6.078125 -23.40625 C 7.023438 -23.40625 8.023438 -23.425781 9.078125 -23.46875 C 10.128906 -23.507812 11.109375 -23.5625 12.015625 -23.625 L 12.015625 -22.671875 C 11.378906 -22.671875 10.804688 -22.640625 10.296875 -22.578125 C 9.796875 -22.515625 9.453125 -22.316406 9.265625 -21.984375 C 9.085938 -21.648438 9.125 -21.054688 9.375 -20.203125 L 14.71875 -6.03125 L 14.265625 -5.390625 L 17.875 -15.40625 C 18.445312 -17.050781 18.6875 -18.398438 18.59375 -19.453125 C 18.507812 -20.503906 18.175781 -21.296875 17.59375 -21.828125 C 17.019531 -22.359375 16.242188 -22.65625 15.265625 -22.71875 L 15.265625 -23.625 C 15.722656 -23.59375 16.21875 -23.566406 16.75 -23.546875 C 17.28125 -23.535156 17.796875 -23.519531 18.296875 -23.5 C 18.804688 -23.488281 19.257812 -23.484375 19.65625 -23.484375 C 20.257812 -23.484375 20.894531 -23.5 21.5625 -23.53125 C 22.238281 -23.5625 22.773438 -23.59375 23.171875 -23.625 Z M 23.171875 -23.625 "/></g></g></g><g fill="#1c7436" fillOpacity="1"><g transform="translate(211.392761, 76.985891)"><g><path d="M 12.890625 -24.265625 C 15.566406 -24.265625 17.664062 -23.472656 19.1875 -21.890625 C 20.71875 -20.304688 21.484375 -17.71875 21.484375 -14.125 L 6.4375 -14.125 L 6.359375 -14.984375 L 15.71875 -14.984375 C 15.75 -16.484375 15.65625 -17.863281 15.4375 -19.125 C 15.226562 -20.394531 14.894531 -21.410156 14.4375 -22.171875 C 13.976562 -22.929688 13.367188 -23.3125 12.609375 -23.3125 C 11.546875 -23.3125 10.640625 -22.640625 9.890625 -21.296875 C 9.148438 -19.953125 8.703125 -17.726562 8.546875 -14.625 L 8.6875 -14.34375 C 8.65625 -13.976562 8.628906 -13.597656 8.609375 -13.203125 C 8.597656 -12.804688 8.59375 -12.394531 8.59375 -11.96875 C 8.59375 -9.875 8.890625 -8.171875 9.484375 -6.859375 C 10.078125 -5.546875 10.828125 -4.59375 11.734375 -4 C 12.648438 -3.40625 13.582031 -3.109375 14.53125 -3.109375 C 15.175781 -3.109375 15.835938 -3.207031 16.515625 -3.40625 C 17.203125 -3.601562 17.894531 -3.96875 18.59375 -4.5 C 19.300781 -5.03125 19.957031 -5.785156 20.5625 -6.765625 L 21.390625 -6.484375 C 21.023438 -5.328125 20.445312 -4.203125 19.65625 -3.109375 C 18.863281 -2.015625 17.859375 -1.113281 16.640625 -0.40625 C 15.421875 0.289062 13.957031 0.640625 12.25 0.640625 C 10.175781 0.640625 8.347656 0.195312 6.765625 -0.6875 C 5.179688 -1.570312 3.9375 -2.910156 3.03125 -4.703125 C 2.132812 -6.503906 1.6875 -8.789062 1.6875 -11.5625 C 1.6875 -14.394531 2.164062 -16.753906 3.125 -18.640625 C 4.09375 -20.535156 5.421875 -21.945312 7.109375 -22.875 C 8.796875 -23.800781 10.722656 -24.265625 12.890625 -24.265625 Z M 12.890625 -24.265625 "/></g></g></g><g clipPath="url(#861fca59f4)"><path fill="#f4bc33" d="M 151.910156 78.492188 C 151.910156 80.050781 151.910156 81.640625 151.910156 83.324219 C 149.511719 83.324219 147.273438 83.324219 144.878906 83.324219 C 144.878906 81.707031 144.878906 80.117188 144.878906 78.445312 C 138.214844 76.503906 133.671875 72.71875 132.863281 65.257812 C 135.460938 65.257812 137.867188 65.257812 140.40625 65.257812 C 140.996094 67.601562 141.855469 69.867188 144.683594 70.773438 C 144.683594 67.992188 144.683594 65.34375 144.683594 62.578125 C 138.875 61.425781 133.601562 59.472656 133.429688 52.199219 C 133.296875 46.734375 136.785156 43.34375 144.761719 40.847656 C 144.761719 39.339844 144.761719 37.796875 144.761719 36.101562 C 147.140625 36.101562 149.414062 36.101562 151.839844 36.101562 C 151.839844 37.664062 151.839844 39.199219 151.839844 40.835938 C 158.40625 42.277344 162.976562 45.550781 163.464844 52.960938 C 160.855469 52.960938 158.496094 52.960938 156.070312 52.960938 C 155.457031 50.824219 154.601562 48.914062 152.003906 48.445312 C 152.003906 51.03125 152.003906 53.460938 152.003906 55.878906 C 161.1875 57.984375 164.214844 60.625 164.179688 66.453125 C 164.140625 72.375 159.582031 76.894531 151.910156 78.492188 Z M 152 63.660156 C 152 66.171875 152 68.539062 152 70.917969 C 155.132812 70.511719 157.074219 68.933594 156.929688 66.953125 C 156.796875 65.046875 155 63.820312 152 63.660156 Z M 144.855469 48.460938 C 142.1875 48.984375 140.933594 50.308594 141.125 52.191406 C 141.296875 53.835938 142.546875 54.722656 144.855469 54.75 C 144.855469 52.703125 144.855469 50.65625 144.855469 48.460938 Z M 144.855469 48.460938 " fillOpacity="1" fill-rule="evenodd"/></g></svg>