<svg xmlns="http://www.w3.org/2000/svg" xmlns:xlink="http://www.w3.org/1999/xlink" width="500" zoomAndPan="magnify" viewBox="0 0 375 374.999991" height="500" preserveAspectRatio="xMidYMid meet" version="1.0"><defs><g/><clipPath id="13df68120d"><path d="M 51.398438 51.398438 L 323.648438 51.398438 L 323.648438 323.648438 L 51.398438 323.648438 Z M 51.398438 51.398438 " clipRule="nonzero"/></clipPath><clipPath id="6fdd19d8f1"><path d="M 68.652344 51.398438 L 306.394531 51.398438 C 310.96875 51.398438 315.359375 53.214844 318.59375 56.449219 C 321.828125 59.6875 323.648438 64.074219 323.648438 68.652344 L 323.648438 306.394531 C 323.648438 310.96875 321.828125 315.359375 318.59375 318.59375 C 315.359375 321.828125 310.96875 323.648438 306.394531 323.648438 L 68.652344 323.648438 C 64.074219 323.648438 59.6875 321.828125 56.449219 318.59375 C 53.214844 315.359375 51.398438 310.96875 51.398438 306.394531 L 51.398438 68.652344 C 51.398438 64.074219 53.214844 59.6875 56.449219 56.449219 C 59.6875 53.214844 64.074219 51.398438 68.652344 51.398438 " clipRule="nonzero"/></clipPath></defs><g clipPath="url(#13df68120d)"><g clipPath="url(#6fdd19d8f1)"><path strokeLinecap="butt" transform="matrix(0.750129, 0, 0, 0.750129, 51.397614, 51.397609)" fill="none" strokeLinejoin="miter" d="M 23.002346 0.00110391 L 339.937356 0.00110391 C 346.035264 0.00110391 351.888423 2.422562 356.200181 6.73432 C 360.511938 11.051285 362.938604 16.899236 362.938604 23.002352 L 362.938604 339.937362 C 362.938604 346.03527 360.511938 351.888429 356.200181 356.200187 C 351.888423 360.511944 346.035264 362.93861 339.937356 362.93861 L 23.002346 362.93861 C 16.89923 362.93861 11.051279 360.511944 6.734314 356.200187 C 2.422556 351.888429 0.00109791 346.03527 0.00109791 339.937362 L 0.00109791 23.002352 C 0.00109791 16.899236 2.422556 11.051285 6.734314 6.73432 C 11.051279 2.422562 16.89923 0.00110391 23.002346 0.00110391 " stroke="#ffffff" strokeWidth="44" strokeOpacity="1" strokeMiterlimit="4"/></g></g><g fill="#ffffff" fillOpacity="1"><g transform="translate(65.581542, 245.249984)"><g><path d="M 9.234375 -105.28125 L 34.1875 -105.28125 L 45.75 -44.0625 L 58.234375 -105.28125 L 82.28125 -105.28125 L 84.09375 0 L 67.59375 0 L 65.640625 -70.0625 L 53.421875 0 L 38.734375 0 L 25.734375 -70.578125 L 24.171875 0 L 7.40625 0 Z M 9.234375 -105.28125 "/></g></g></g><g fill="#ffffff" fillOpacity="1"><g transform="translate(157.082315, 245.249984)"><g><path d="M 7.796875 -105.28125 L 34.453125 -105.28125 C 43.546875 -105.28125 50.648438 -104.15625 55.765625 -101.90625 C 60.878906 -99.65625 64.492188 -96.125 66.609375 -91.3125 C 68.734375 -86.5 69.796875 -80.066406 69.796875 -72.015625 L 69.796875 -33.796875 C 69.796875 -25.648438 68.734375 -19.148438 66.609375 -14.296875 C 64.492188 -9.441406 60.898438 -5.84375 55.828125 -3.5 C 50.753906 -1.164062 43.710938 0 34.703125 0 L 7.796875 0 Z M 34.703125 -16.125 C 38.085938 -16.125 40.578125 -16.617188 42.171875 -17.609375 C 43.773438 -18.609375 44.796875 -20.039062 45.234375 -21.90625 C 45.671875 -23.769531 45.890625 -26.519531 45.890625 -30.15625 L 45.890625 -76.046875 C 45.890625 -79.421875 45.648438 -81.992188 45.171875 -83.765625 C 44.691406 -85.546875 43.648438 -86.867188 42.046875 -87.734375 C 40.441406 -88.609375 37.953125 -89.046875 34.578125 -89.046875 L 31.0625 -89.046875 L 31.0625 -16.125 Z M 34.703125 -16.125 "/></g></g></g><g fill="#ffffff" fillOpacity="1"><g transform="translate(233.246311, 245.249984)"><g><path d="M 37.953125 1.5625 C 26.597656 1.5625 18.492188 -1.359375 13.640625 -7.203125 C 8.796875 -13.054688 6.375 -21.703125 6.375 -33.140625 L 6.375 -72.265625 C 6.375 -83.703125 8.796875 -92.300781 13.640625 -98.0625 C 18.492188 -103.832031 26.597656 -106.71875 37.953125 -106.71875 C 49.390625 -106.71875 57.554688 -103.8125 62.453125 -98 C 67.347656 -92.195312 69.796875 -83.617188 69.796875 -72.265625 L 69.796875 -33.140625 C 69.796875 -21.703125 67.347656 -13.054688 62.453125 -7.203125 C 57.554688 -1.359375 49.390625 1.5625 37.953125 1.5625 Z M 37.953125 -14.953125 C 41.242188 -14.953125 43.410156 -16.054688 44.453125 -18.265625 C 45.492188 -20.472656 46.015625 -23.484375 46.015625 -27.296875 L 46.015625 -77.984375 C 46.015625 -81.890625 45.492188 -84.925781 44.453125 -87.09375 C 43.410156 -89.257812 41.242188 -90.34375 37.953125 -90.34375 C 34.835938 -90.34375 32.757812 -89.234375 31.71875 -87.015625 C 30.675781 -84.804688 30.15625 -81.796875 30.15625 -77.984375 L 30.15625 -27.296875 C 30.15625 -23.484375 30.628906 -20.472656 31.578125 -18.265625 C 32.535156 -16.054688 34.660156 -14.953125 37.953125 -14.953125 Z M 37.953125 -14.953125 "/></g></g></g></svg>